<svg width="40.000000" height="62.000000" viewBox="0 0 40 62" fill="none" xmlns="http://www.w3.org/2000/svg" xmlns:xlink="http://www.w3.org/1999/xlink">
	<g opacity="0.700000">
		<path id="Vector" d="M15.16 37.71C14.86 38.71 14.96 39.9 15.16 41.29C15.66 43.88 16.85 47.27 17.55 50.95L22.64 50.95C23.34 47.37 24.53 43.98 25.13 41.29C25.43 39.9 25.43 38.61 25.13 37.71C24.83 36.82 24.23 36.12 23.14 35.42L17.15 35.42C15.96 36.12 15.36 36.82 15.16 37.71Z" fill="#149080" fill-opacity="1.000000" fill-rule="nonzero"/>
		<path id="Vector" d="M26.93 57.62L13.16 57.62C11.87 57.62 10.87 58.61 10.87 59.81L10.87 62L13.16 62L26.93 62L29.22 62L29.22 59.81C29.22 58.61 28.22 57.62 26.93 57.62Z" fill="#149080" fill-opacity="1.000000" fill-rule="nonzero"/>
		<path id="Vector" d="M34.01 2.18L22.34 2.18C22.34 0.99 21.34 0 20.04 0C18.75 0 17.75 0.99 17.75 2.18L6.08 2.18L0 27.56C0.79 27.06 1.59 26.57 2.59 26.57C3.99 26.57 4.78 27.36 5.48 27.96C6.18 28.56 6.68 28.76 6.88 28.76C7.18 28.76 7.68 28.46 8.37 27.96C9.07 27.46 9.97 26.57 11.27 26.57C12.56 26.57 13.46 27.36 14.16 27.96C14.86 28.46 15.36 28.76 15.66 28.76C15.76 28.76 15.96 28.66 16.25 28.56C16.45 28.46 16.75 28.16 17.15 27.96C17.65 27.56 18.25 26.96 19.15 26.77C19.45 26.67 19.75 26.67 20.04 26.67C21.34 26.67 22.24 27.46 22.94 28.06C23.64 28.56 24.13 28.86 24.43 28.86C24.73 28.86 25.23 28.56 25.83 28.06C26.53 27.46 27.43 26.67 28.72 26.67C30.12 26.67 30.92 27.46 31.62 28.06C31.92 28.36 32.21 28.56 32.51 28.66C32.71 28.76 32.91 28.86 33.11 28.86C33.41 28.86 33.91 28.56 34.51 27.96C35.21 27.36 36.1 26.57 37.4 26.57C38.4 26.57 39.2 27.06 40 27.56L34.01 2.18Z" fill="#149080" fill-opacity="1.000000" fill-rule="nonzero"/>
		<path id="Vector" d="M23.44 53.14L16.55 53.14C15.86 53.14 15.46 53.64 15.46 54.23C15.46 54.83 15.95 55.33 16.55 55.33L23.44 55.33C24.13 55.33 24.53 54.83 24.53 54.23C24.63 53.64 24.13 53.14 23.44 53.14Z" fill="#149080" fill-opacity="1.000000" fill-rule="nonzero"/>
		<path id="Vector" d="M20.04 28.76C19.95 28.76 19.75 28.86 19.45 28.95C19.25 29.05 19.05 29.25 18.85 29.35L18.85 33.03L21.14 33.03L21.14 29.45C20.64 29.05 20.24 28.76 20.04 28.76Z" fill="#149080" fill-opacity="1.000000" fill-rule="nonzero"/>
	</g>
</svg>
