<svg width="60.000000" height="60.000000" viewBox="0 0 60 60" fill="none" xmlns="http://www.w3.org/2000/svg" xmlns:xlink="http://www.w3.org/1999/xlink">
	<g opacity="0.700000">
		<path id="lego-toy" d="M0 43.99L27.4 60L27.4 36.54L0 20.43L0 43.99ZM51.3 12.48L51.3 15C51.3 16.81 47.8 18.32 43.6 18.32C39.3 18.32 35.9 16.81 35.9 15L35.9 10.87C36.2 12.58 39.5 13.99 43.6 13.99C47.9 13.99 51.3 12.48 51.3 10.67C51.3 8.85 47.8 7.34 43.6 7.34C43.3 7.34 42.9 7.34 42.6 7.34L37.59 4.42L37.59 7.55C37.59 9.36 34.09 10.87 29.9 10.87C27.2 10.87 24.9 10.26 23.5 9.36C23.3 9.16 23.1 8.95 22.8 8.75C22.4 8.35 22.2 7.95 22.2 7.55L22.2 4.53L17.4 7.34C17.1 7.34 16.7 7.34 16.29 7.34C12 7.34 8.59 8.85 8.59 10.67C8.59 12.48 12.1 13.99 16.29 13.99C20.4 13.99 23.7 12.58 24 10.87L24 15C24 16.81 20.5 18.32 16.29 18.32C12 18.32 8.59 16.81 8.59 15L8.59 12.58L2.59 16.1L30.1 32.21L57.5 16.2L51.3 12.48ZM37.7 22.75C37.7 24.56 34.2 26.07 30 26.07C25.7 26.07 22.3 24.56 22.3 22.75L22.3 18.62C22.6 20.33 25.9 21.74 30 21.74C34.09 21.74 37.4 20.33 37.7 18.62L37.7 22.75ZM32.59 36.74L32.59 60L60 43.99L60 20.73L32.59 36.74ZM29.9 6.64C34.2 6.64 37.59 5.13 37.59 3.32C37.59 1.51 34.09 0 29.9 0C25.6 0 22.2 1.51 22.2 3.32C22.2 5.13 25.6 6.64 29.9 6.64Z" fill="#149080" fill-opacity="1.000000" fill-rule="nonzero"/>
	</g>
</svg>
